<?xml version="1.0" encoding="UTF-8" standalone="no"?> <svg xmlns="http://www.w3.org/2000/svg" xmlns:xlink="http://www.w3.org/1999/xlink" width="100%" height="100%" viewBox="0 0 137 109" xml:space="preserve" style="fill-rule:evenodd;clip-rule:evenodd;stroke-linejoin:round;stroke-miterlimit:1.41421;"> <g id="v" transform="matrix(1,0,0,1,861.31,-755.667)"> <path d="M-814.351,808.909L-814.273,808.985L-801.419,808.985L-801.497,808.909L-789.512,796.948C-781.112,788.561 -782.711,788.515 -774.307,796.905L-762.281,808.909L-762.358,808.985L-749.503,808.985L-749.427,808.909L-769.265,789.108C-783.195,775.198 -780.541,775.158 -794.477,789.068L-814.351,808.909" style="fill:rgb(182,179,178);"></path> <path d="M-768.933,784.709L-744.591,809.105L-744.667,809.18L-731.812,809.18L-731.77,809.143L-731.736,809.105L-763.89,776.912C-778.578,762.754 -775.836,763.364 -789.098,777.494C-794.937,783.326 -789.131,776.839 -783.337,775.789C-780.053,775.19 -777.735,776.713 -775.281,778.718C-772.882,780.673 -770.513,783.133 -768.933,784.709" style="fill:rgb(4,60,123);"></path> <path d="M-779.149,809.11L-779.038,809.186L-767.083,809.186L-767.003,809.11L-771.567,804.654L-779.001,797.305C-781.705,794.6 -784.081,796.494 -789.048,801.511C-790.502,802.982 -792.18,804.719 -794.153,806.69C-796.343,808.878 -797.386,810.029 -796.915,809.795C-796.131,809.411 -791.516,805.394 -787.893,804.736C-786.868,804.548 -785.936,804.57 -785.066,804.749C-782.385,805.296 -780.997,807.059 -779.149,809.11" style="fill:rgb(239,125,0);"></path> <path d="M-810.028,799.162L-819.956,809.106L-819.879,809.181L-832.735,809.181L-832.776,809.144L-832.811,809.106L-815.366,791.635C-809.839,786.098 -809.457,784.869 -803.718,785.815C-802.841,785.957 -801.909,785.942 -800.891,785.715C-797.296,784.927 -792.838,780.739 -792.067,780.319C-791.606,780.072 -792.603,781.265 -794.711,783.531C-794.9,783.732 -795.085,783.936 -795.27,784.135L-810.028,799.162" style="fill:rgb(4,60,123);"></path> <path d="M-853.419,766.218C-852.596,766.522 -846.502,767.106 -843.534,769.28C-839.775,772.036 -836.147,774.456 -831.414,775.028C-829.759,775.229 -827.869,775.281 -825.531,775.256L-820.531,775.201L-827.348,782.324L-854.096,809.105L-854.062,809.143L-854.02,809.18L-841.165,809.18L-841.243,809.105L-818.055,785.869C-815.292,782.94 -812.344,779.269 -809.708,776.363C-807.808,774.267 -804.397,765.908 -814.321,766.113L-831.028,766.14C-832.69,766.144 -853.91,766.035 -853.419,766.218" style="fill:rgb(4,60,123);"></path> <path d="M-797.444,780.375C-799.686,780.328 -802.798,778.656 -802.804,775.053C-802.75,771.449 -799.614,769.853 -797.373,769.86C-795.131,769.906 -792.019,771.583 -792.013,775.182C-792.066,778.786 -795.201,780.383 -797.444,780.375" style="fill:rgb(239,125,0);"></path> <path d="M-858.259,818.341L-857.044,818.341L-857.044,819.598L-858.259,819.598L-858.259,824.641L-859.472,824.641L-859.472,819.598L-860.687,819.598L-860.687,818.341L-859.472,818.341L-859.472,815.822L-858.259,815.822L-858.259,818.341Z" style="fill:rgb(4,60,123);"></path> <path d="M-855.526,820.86C-855.388,820.127 -855.03,819.502 -854.451,818.99C-853.876,818.474 -853.201,818.214 -852.432,818.214C-852.037,818.214 -851.65,818.297 -851.275,818.458C-850.899,818.619 -850.562,818.845 -850.264,819.145L-851.132,820.019C-851.288,819.858 -851.48,819.73 -851.708,819.626C-851.936,819.527 -852.178,819.476 -852.433,819.476C-852.881,819.476 -853.272,819.613 -853.611,819.893C-853.908,820.137 -854.124,820.461 -854.262,820.861L-851.944,820.861L-851.944,822.119L-854.262,822.119C-854.127,822.52 -853.914,822.842 -853.616,823.087C-853.278,823.363 -852.883,823.505 -852.432,823.505C-852.163,823.505 -851.92,823.459 -851.703,823.367C-851.483,823.279 -851.281,823.138 -851.095,822.956L-850.246,823.862C-850.508,824.128 -850.839,824.343 -851.237,824.517C-851.434,824.599 -851.632,824.66 -851.822,824.704C-852.015,824.743 -852.218,824.766 -852.432,824.766C-853.227,824.766 -853.911,824.505 -854.49,823.982C-855.023,823.488 -855.367,822.866 -855.519,822.12L-856.195,822.12L-856.195,820.862L-855.526,820.862" style="fill:rgb(4,60,123);"></path> <path d="M-843.67,823.734C-843.932,824.036 -844.269,824.29 -844.68,824.484C-845.078,824.669 -845.509,824.764 -845.975,824.764C-846.819,824.764 -847.556,824.449 -848.188,823.819C-848.819,823.187 -849.135,822.412 -849.135,821.487C-849.135,820.561 -848.823,819.784 -848.197,819.158C-847.571,818.527 -846.831,818.214 -845.975,818.214C-845.703,818.214 -845.47,818.235 -845.275,818.282C-845.075,818.321 -844.862,818.397 -844.644,818.511C-844.285,818.674 -843.96,818.915 -843.67,819.242L-844.583,820.125C-844.777,819.92 -844.96,819.768 -845.135,819.67C-845.188,819.644 -845.245,819.611 -845.307,819.588C-845.368,819.568 -845.437,819.546 -845.515,819.527C-845.591,819.509 -845.663,819.496 -845.731,819.488C-845.801,819.479 -845.882,819.475 -845.975,819.475C-846.475,819.475 -846.923,819.676 -847.319,820.076C-847.718,820.475 -847.916,820.947 -847.916,821.487C-847.916,822.035 -847.719,822.505 -847.33,822.906C-846.94,823.305 -846.489,823.504 -845.975,823.504C-845.722,823.504 -845.492,823.466 -845.293,823.384C-845.055,823.288 -844.795,823.102 -844.518,822.826L-843.67,823.734" style="fill:rgb(4,60,123);"></path> <path d="M-840.757,818.536C-840.361,818.324 -839.914,818.214 -839.415,818.214C-838.576,818.214 -837.838,818.53 -837.202,819.164C-836.568,819.792 -836.253,820.574 -836.253,821.5L-836.253,824.653L-837.465,824.653L-837.465,821.502C-837.465,820.936 -837.662,820.453 -838.055,820.062C-838.446,819.673 -838.899,819.476 -839.406,819.476C-839.697,819.476 -839.961,819.533 -840.194,819.659C-840.303,819.708 -840.405,819.768 -840.505,819.844C-840.58,819.902 -840.663,819.986 -840.758,820.09L-840.758,824.654L-841.961,824.654L-841.961,817.085L-842.569,817.085L-842.569,815.823L-840.758,815.823L-840.758,818.536" style="fill:rgb(4,60,123);"></path> <path d="M-829.913,821.677C-829.913,820.988 -830.035,820.464 -830.277,820.106C-830.559,819.686 -831.003,819.475 -831.612,819.475C-831.902,819.475 -832.164,819.531 -832.4,819.652C-832.573,819.736 -832.757,819.883 -832.951,820.089L-832.951,824.642L-834.166,824.642L-834.166,820.089L-835.02,819.192L-834.238,818.342L-833.571,819.025L-833.361,818.823L-833.08,818.612L-832.926,818.526L-832.721,818.427C-832.35,818.283 -831.981,818.214 -831.612,818.214C-830.635,818.214 -829.892,818.539 -829.381,819.192C-828.933,819.757 -828.71,820.491 -828.71,821.392L-828.71,824.642L-829.913,824.642L-829.913,821.677" style="fill:rgb(4,60,123);"></path> <path d="M-821.828,821.495C-821.828,820.939 -822.018,820.461 -822.397,820.065C-822.778,819.674 -823.233,819.475 -823.76,819.475C-824.292,819.475 -824.745,819.676 -825.127,820.072C-825.509,820.472 -825.699,820.946 -825.699,821.495C-825.699,822.036 -825.514,822.505 -825.143,822.906C-824.769,823.305 -824.31,823.504 -823.759,823.504C-823.232,823.504 -822.777,823.306 -822.396,822.91C-822.018,822.509 -821.828,822.039 -821.828,821.495M-823.76,818.213C-822.914,818.213 -822.176,818.538 -821.543,819.187C-821.229,819.504 -820.992,819.857 -820.835,820.24C-820.677,820.624 -820.601,821.046 -820.601,821.495C-820.601,822.382 -820.912,823.148 -821.53,823.796C-822.151,824.44 -822.893,824.765 -823.76,824.765C-824.629,824.765 -825.372,824.445 -825.996,823.808C-826.618,823.168 -826.928,822.398 -826.928,821.496C-826.928,820.616 -826.617,819.85 -825.998,819.196C-825.378,818.542 -824.633,818.213 -823.76,818.213" style="fill:rgb(4,60,123);"></path> <path d="M-819.312,815.822L-817.49,815.822L-817.49,824.641L-818.703,824.641L-818.703,817.083L-819.312,817.083L-819.312,815.822Z" style="fill:rgb(4,60,123);"></path> <path d="M-810.61,821.495C-810.61,820.939 -810.799,820.461 -811.179,820.065C-811.561,819.674 -812.013,819.475 -812.542,819.475C-813.073,819.475 -813.527,819.676 -813.908,820.072C-814.289,820.472 -814.482,820.946 -814.482,821.495C-814.482,822.036 -814.296,822.505 -813.925,822.906C-813.552,823.305 -813.093,823.504 -812.542,823.504C-812.013,823.504 -811.561,823.306 -811.179,822.91C-810.799,822.509 -810.61,822.039 -810.61,821.495M-812.542,818.213C-811.694,818.213 -810.956,818.538 -810.325,819.187C-810.011,819.504 -809.773,819.857 -809.617,820.24C-809.46,820.624 -809.383,821.046 -809.383,821.495C-809.382,822.382 -809.693,823.148 -810.314,823.796C-810.933,824.44 -811.676,824.765 -812.543,824.765C-813.414,824.765 -814.158,824.445 -814.778,823.808C-815.402,823.168 -815.711,822.398 -815.711,821.496C-815.711,820.616 -815.402,819.85 -814.78,819.196C-814.161,818.542 -813.416,818.213 -812.542,818.213" style="fill:rgb(4,60,123);"></path> <path d="M-803.358,822.888L-803.358,820.076C-803.478,819.913 -803.675,819.764 -803.949,819.638C-804.076,819.578 -804.201,819.531 -804.325,819.503L-804.511,819.474L-804.723,819.474C-805.244,819.474 -805.696,819.675 -806.084,820.071C-806.469,820.471 -806.665,820.945 -806.665,821.486C-806.665,822.034 -806.472,822.504 -806.096,822.905C-805.717,823.304 -805.261,823.503 -804.723,823.503C-804.406,823.503 -804.128,823.443 -803.89,823.332C-803.693,823.232 -803.515,823.085 -803.358,822.888M-802.151,824.354C-802.151,824.897 -802.252,825.4 -802.455,825.876C-802.658,826.352 -802.957,826.777 -803.351,827.16L-804.228,826.306C-804.092,826.192 -803.976,826.062 -803.87,825.917C-803.758,825.773 -803.665,825.622 -803.59,825.458C-803.437,825.108 -803.359,824.776 -803.359,824.453C-803.512,824.545 -803.717,824.617 -803.975,824.673C-804.231,824.731 -804.479,824.763 -804.718,824.763C-805.595,824.763 -806.342,824.443 -806.96,823.806C-807.578,823.166 -807.885,822.395 -807.885,821.486C-807.885,820.591 -807.572,819.821 -806.943,819.179C-806.313,818.534 -805.575,818.212 -804.724,818.212C-804.194,818.212 -803.687,818.348 -803.199,818.608C-802.753,818.856 -802.406,819.186 -802.152,819.597L-802.152,824.354L-802.151,824.354Z" style="fill:rgb(4,60,123);"></path> <path d="M-798.863,821.489C-798.863,822.05 -798.673,822.525 -798.291,822.918C-797.912,823.311 -797.453,823.504 -796.917,823.504C-796.619,823.504 -796.343,823.44 -796.092,823.313L-795.82,823.138C-795.739,823.082 -795.644,823.001 -795.528,822.892L-795.528,818.342L-794.321,818.342L-794.321,824.355C-794.321,824.859 -794.478,825.377 -794.792,825.916C-794.928,826.143 -795.074,826.354 -795.225,826.54C-795.376,826.728 -795.579,826.935 -795.827,827.162L-796.699,826.31C-796.27,825.933 -795.954,825.58 -795.755,825.239C-795.674,825.101 -795.618,824.969 -795.582,824.843C-795.547,824.715 -795.529,824.58 -795.529,824.432C-795.701,824.535 -795.912,824.613 -796.16,824.67C-796.405,824.731 -796.657,824.766 -796.913,824.766C-797.777,824.766 -798.521,824.446 -799.143,823.807C-799.765,823.167 -800.078,822.393 -800.078,821.491L-800.078,818.344L-798.865,818.344L-798.865,821.489" style="fill:rgb(4,60,123);"></path> <path d="M-788.499,815.822L-787.287,815.822L-787.287,817.084L-788.499,817.084L-788.499,815.822ZM-789.108,818.34L-787.286,818.34L-787.286,824.641L-788.498,824.641L-788.498,819.598L-789.107,819.598L-789.107,818.34L-789.108,818.34Z" style="fill:rgb(4,60,123);"></path> <path d="M-780.301,821.677C-780.301,820.988 -780.425,820.464 -780.666,820.106C-780.947,819.686 -781.392,819.475 -782,819.475C-782.29,819.475 -782.552,819.531 -782.788,819.651C-782.963,819.736 -783.147,819.883 -783.341,820.089L-783.341,824.642L-784.554,824.642L-784.554,820.089L-785.408,819.192L-784.628,818.341L-783.96,819.025L-783.749,818.823L-783.47,818.612L-783.316,818.525L-783.112,818.426C-782.741,818.283 -782.371,818.213 -782.001,818.213C-781.025,818.213 -780.281,818.539 -779.771,819.192C-779.322,819.757 -779.102,820.49 -779.102,821.391L-779.102,824.642L-780.303,824.642L-780.303,821.677" style="fill:rgb(4,60,123);"></path> <path d="M-772.208,821.677C-772.208,820.988 -772.331,820.464 -772.574,820.106C-772.855,819.686 -773.3,819.475 -773.907,819.475C-774.198,819.475 -774.459,819.531 -774.694,819.651C-774.87,819.736 -775.053,819.883 -775.249,820.089L-775.249,824.642L-776.46,824.642L-776.46,820.089L-777.315,819.192L-776.535,818.341L-775.868,819.025L-775.656,818.823L-775.375,818.612L-775.223,818.525L-775.017,818.426C-774.646,818.283 -774.277,818.213 -773.907,818.213C-772.932,818.213 -772.187,818.539 -771.676,819.192C-771.227,819.757 -771.007,820.49 -771.007,821.391L-771.007,824.642L-772.208,824.642L-772.208,821.677" style="fill:rgb(4,60,123);"></path> <path d="M-764.126,821.495C-764.126,820.939 -764.314,820.46 -764.692,820.065C-765.074,819.674 -765.528,819.475 -766.056,819.475C-766.586,819.475 -767.041,819.676 -767.423,820.072C-767.804,820.472 -767.996,820.946 -767.996,821.495C-767.996,822.036 -767.811,822.505 -767.438,822.906C-767.066,823.305 -766.605,823.503 -766.056,823.503C-765.529,823.503 -765.074,823.306 -764.692,822.91C-764.314,822.509 -764.126,822.039 -764.126,821.495M-766.056,818.212C-765.209,818.212 -764.472,818.538 -763.839,819.186C-763.524,819.504 -763.287,819.857 -763.129,820.24C-762.974,820.624 -762.896,821.046 -762.896,821.495C-762.896,822.382 -763.206,823.147 -763.826,823.795C-764.447,824.44 -765.189,824.765 -766.056,824.765C-766.925,824.765 -767.67,824.445 -768.29,823.808C-768.913,823.168 -769.224,822.398 -769.224,821.496C-769.224,820.616 -768.913,819.85 -768.292,819.196C-767.674,818.542 -766.929,818.212 -766.056,818.212" style="fill:rgb(4,60,123);"></path> <path d="M-757.277,818.34L-755.943,818.34L-758.98,824.641L-762.016,818.34L-760.679,818.34L-758.982,821.989L-757.277,818.34Z" style="fill:rgb(4,60,123);"></path> <path d="M-750.531,822.891L-750.531,820.088C-750.708,819.913 -750.909,819.764 -751.133,819.65C-751.266,819.588 -751.394,819.545 -751.516,819.515C-751.641,819.49 -751.775,819.474 -751.915,819.474C-752.459,819.474 -752.92,819.675 -753.292,820.071C-753.666,820.471 -753.854,820.944 -753.854,821.486C-753.854,822.026 -753.66,822.494 -753.273,822.898C-752.886,823.301 -752.433,823.502 -751.914,823.502C-751.619,823.502 -751.356,823.446 -751.125,823.339C-750.896,823.232 -750.696,823.082 -750.531,822.891M-751.914,824.764C-752.786,824.764 -753.534,824.439 -754.156,823.794C-754.453,823.465 -754.683,823.107 -754.84,822.718C-754.997,822.332 -755.075,821.922 -755.075,821.487C-755.075,820.632 -754.763,819.873 -754.145,819.211C-753.526,818.549 -752.783,818.213 -751.915,818.213C-751.408,818.213 -750.911,818.348 -750.428,818.605C-749.944,818.863 -749.579,819.196 -749.329,819.599L-749.329,822.907L-748.475,823.787L-749.255,824.642L-749.874,824.005L-749.998,824.096L-750.13,824.202C-750.313,824.318 -750.553,824.437 -750.847,824.567C-751.212,824.699 -751.567,824.764 -751.914,824.764Z" style="fill:rgb(4,60,123);"></path> <path d="M-745.103,818.34L-743.892,818.34L-743.892,819.598L-745.103,819.598L-745.103,824.641L-746.319,824.641L-746.319,819.598L-747.532,819.598L-747.532,818.34L-746.319,818.34L-746.319,815.822L-745.103,815.822L-745.103,818.34Z" style="fill:rgb(4,60,123);"></path> <path d="M-741.788,815.822L-740.574,815.822L-740.574,817.084L-741.788,817.084L-741.788,815.822ZM-742.396,818.34L-740.574,818.34L-740.574,824.641L-741.788,824.641L-741.788,819.598L-742.396,819.598L-742.396,818.34Z" style="fill:rgb(4,60,123);"></path> <path d="M-733.597,821.495C-733.597,820.939 -733.787,820.46 -734.166,820.065C-734.548,819.674 -734.999,819.475 -735.529,819.475C-736.059,819.475 -736.513,819.676 -736.895,820.072C-737.275,820.472 -737.468,820.946 -737.468,821.495C-737.468,822.036 -737.281,822.505 -736.911,822.906C-736.537,823.305 -736.079,823.503 -735.528,823.503C-734.998,823.503 -734.547,823.306 -734.165,822.91C-733.787,822.509 -733.597,822.039 -733.597,821.495M-735.53,818.212C-734.68,818.212 -733.945,818.538 -733.312,819.186C-733,819.504 -732.762,819.857 -732.604,820.24C-732.447,820.624 -732.369,821.046 -732.369,821.495C-732.369,822.382 -732.68,823.147 -733.299,823.795C-733.92,824.44 -734.662,824.765 -735.53,824.765C-736.398,824.765 -737.142,824.445 -737.765,823.808C-738.387,823.168 -738.698,822.398 -738.698,821.496C-738.698,820.616 -738.387,819.85 -737.767,819.196C-737.146,818.542 -736.402,818.212 -735.53,818.212" style="fill:rgb(4,60,123);"></path> <path d="M-726.046,821.677C-726.046,820.988 -726.168,820.464 -726.412,820.106C-726.694,819.686 -727.138,819.475 -727.746,819.475C-728.036,819.475 -728.299,819.531 -728.533,819.651C-728.709,819.736 -728.893,819.883 -729.087,820.089L-729.086,824.642L-730.301,824.642L-730.301,820.089L-731.155,819.192L-730.373,818.341L-729.706,819.025L-729.494,818.823L-729.216,818.612L-729.062,818.525L-728.857,818.426C-728.486,818.283 -728.116,818.213 -727.747,818.213C-726.771,818.213 -726.027,818.539 -725.515,819.192C-725.068,819.757 -724.846,820.49 -724.846,821.391L-724.846,824.642L-726.048,824.642L-726.048,821.677" style="fill:rgb(4,60,123);"></path> <path d="M-730.97,839.282L-730.97,836.552L-733.064,833.299L-731.19,833.299L-730.383,834.839C-730.378,834.848 -730.368,834.861 -730.358,834.886C-730.273,835.045 -730.215,835.198 -730.183,835.348C-730.156,835.213 -730.097,835.067 -730.006,834.903C-729.991,834.871 -729.98,834.851 -729.973,834.84L-729.175,833.3L-727.296,833.3L-729.394,836.553L-729.394,839.283L-730.97,839.283M-752.028,833.53L-752.028,835.314C-752.252,835.066 -752.475,834.884 -752.699,834.769C-752.92,834.651 -753.158,834.591 -753.411,834.591C-753.881,834.591 -754.26,834.754 -754.552,835.073C-754.843,835.394 -754.989,835.808 -754.989,836.324C-754.989,836.805 -754.841,837.201 -754.545,837.518C-754.248,837.835 -753.871,837.993 -753.412,837.993C-753.159,837.993 -752.921,837.936 -752.7,837.818C-752.476,837.702 -752.253,837.519 -752.029,837.269L-752.029,839.055C-752.288,839.18 -752.546,839.275 -752.802,839.336C-753.059,839.399 -753.318,839.429 -753.58,839.429C-753.908,839.429 -754.21,839.393 -754.487,839.315C-754.763,839.238 -755.02,839.119 -755.251,838.961C-755.698,838.663 -756.041,838.285 -756.275,837.831C-756.509,837.373 -756.627,836.86 -756.627,836.292C-756.627,835.833 -756.553,835.419 -756.403,835.044C-756.255,834.668 -756.03,834.331 -755.731,834.025C-755.447,833.734 -755.127,833.517 -754.77,833.371C-754.415,833.226 -754.02,833.153 -753.581,833.153C-753.319,833.153 -753.06,833.183 -752.803,833.248C-752.545,833.312 -752.287,833.408 -752.028,833.53M-782.586,839.282L-782.586,833.299L-781.01,833.299L-778.746,836.377C-778.702,836.439 -778.632,836.565 -778.531,836.753C-778.431,836.945 -778.323,837.168 -778.204,837.433C-778.236,837.184 -778.259,836.961 -778.273,836.771C-778.289,836.578 -778.297,836.405 -778.297,836.255L-778.297,833.299L-776.728,833.299L-776.728,839.282L-778.297,839.282L-780.559,836.192C-780.606,836.129 -780.679,836.004 -780.781,835.811C-780.878,835.623 -780.986,835.404 -781.104,835.144C-781.071,835.398 -781.048,835.619 -781.032,835.811C-781.016,836.003 -781.01,836.173 -781.01,836.327L-781.01,839.282L-782.586,839.282ZM-806.412,839.282L-806.412,833.299L-802.74,833.299L-802.74,834.611L-804.819,834.611L-804.819,835.648L-802.859,835.648L-802.859,836.933L-804.819,836.933L-804.819,837.944L-802.74,837.944L-802.74,839.283L-806.412,839.283L-806.412,839.282ZM-829.704,837.079L-829.704,835.822L-826.493,835.822C-826.49,835.864 -826.488,835.91 -826.487,835.959C-826.485,836.009 -826.485,836.081 -826.485,836.174C-826.485,837.204 -826.756,838.005 -827.301,838.573C-827.846,839.142 -828.612,839.425 -829.598,839.425C-830.086,839.425 -830.516,839.352 -830.893,839.206C-831.272,839.06 -831.611,838.838 -831.907,838.541C-832.193,838.251 -832.411,837.914 -832.569,837.522C-832.727,837.13 -832.804,836.72 -832.804,836.293C-832.804,835.846 -832.727,835.436 -832.575,835.064C-832.424,834.686 -832.195,834.35 -831.892,834.052C-831.59,833.761 -831.245,833.539 -830.857,833.386C-830.468,833.239 -830.05,833.162 -829.597,833.162C-829.011,833.162 -828.493,833.277 -828.041,833.511C-827.591,833.744 -827.209,834.088 -826.901,834.542L-828.317,835.222C-828.488,834.989 -828.677,834.82 -828.888,834.706C-829.1,834.591 -829.337,834.534 -829.597,834.534C-830.088,834.534 -830.471,834.7 -830.753,835.023C-831.033,835.351 -831.174,835.795 -831.174,836.358C-831.174,836.927 -831.033,837.376 -830.753,837.702C-830.471,838.03 -830.088,838.194 -829.597,838.194C-829.184,838.194 -828.837,838.092 -828.561,837.889C-828.286,837.685 -828.123,837.416 -828.077,837.077L-829.704,837.077L-829.704,837.079ZM-858.235,839.282L-856.167,833.299L-854.119,833.299L-852.048,839.282L-853.674,839.282L-853.976,838.211L-856.299,838.211L-856.611,839.282L-858.235,839.282ZM-855.945,837.043L-854.32,837.043L-854.931,835.072C-854.95,835.01 -854.977,834.913 -855.008,834.781C-855.043,834.649 -855.083,834.475 -855.135,834.266C-855.172,834.413 -855.206,834.553 -855.241,834.687C-855.275,834.823 -855.308,834.949 -855.343,835.072L-855.945,837.043Z" style="fill:rgb(4,60,123);fill-rule:nonzero;"></path> <path d="M-859.641,845.939L-857.011,845.939L-857.119,846.544L-858.042,846.544L-858.966,851.871L-858.042,851.871L-858.144,852.474L-860.774,852.474L-860.674,851.871L-859.761,851.871L-858.838,846.544L-859.752,846.544L-859.641,845.939Z" style="fill:rgb(182,179,178);fill-rule:nonzero;"></path> <path d="M-855.503,848.568C-855.319,848.221 -855.1,847.967 -854.845,847.806C-854.589,847.646 -854.268,847.562 -853.885,847.562C-853.518,847.562 -853.23,847.646 -853.016,847.806C-852.802,847.967 -852.669,848.221 -852.614,848.568C-852.614,848.672 -852.62,848.773 -852.637,848.874C-852.653,848.976 -852.669,849.079 -852.686,849.181L-853.163,851.899L-852.413,851.899L-852.504,852.474L-854.742,852.474L-854.653,851.899L-853.903,851.899L-853.474,849.436C-853.443,849.27 -853.427,849.112 -853.424,848.957C-853.421,848.801 -853.442,848.664 -853.487,848.542C-853.532,848.421 -853.611,848.323 -853.72,848.248C-853.83,848.177 -853.985,848.14 -854.186,848.14C-854.327,848.14 -854.44,848.147 -854.53,848.163C-854.617,848.177 -854.728,848.224 -854.862,848.304C-854.979,848.373 -855.07,848.442 -855.141,848.515C-855.211,848.586 -855.281,848.672 -855.347,848.768C-855.476,848.958 -855.567,849.158 -855.617,849.368C-855.669,849.577 -855.713,849.784 -855.751,849.993L-856.087,851.899L-855.338,851.899L-855.429,852.474L-857.714,852.474L-857.623,851.899L-856.828,851.899L-856.188,848.249L-856.966,848.249L-856.875,847.715L-855.356,847.715L-855.503,848.568Z" style="fill:rgb(182,179,178);fill-rule:nonzero;"></path> <path d="M-849.917,848.568C-849.734,848.221 -849.516,847.967 -849.26,847.806C-849.003,847.646 -848.684,847.562 -848.301,847.562C-847.935,847.562 -847.646,847.646 -847.431,847.806C-847.218,847.967 -847.084,848.221 -847.03,848.568C-847.03,848.672 -847.037,848.773 -847.052,848.874C-847.068,848.976 -847.084,849.079 -847.102,849.181L-847.576,851.899L-846.828,851.899L-846.917,852.474L-849.159,852.474L-849.068,851.899L-848.319,851.899L-847.888,849.436C-847.859,849.27 -847.841,849.112 -847.838,848.957C-847.835,848.801 -847.857,848.664 -847.901,848.542C-847.947,848.421 -848.026,848.323 -848.135,848.248C-848.242,848.177 -848.401,848.14 -848.601,848.14C-848.741,848.14 -848.855,848.147 -848.945,848.163C-849.032,848.177 -849.142,848.224 -849.275,848.304C-849.393,848.373 -849.485,848.442 -849.555,848.515C-849.626,848.586 -849.695,848.672 -849.762,848.768C-849.888,848.958 -849.981,849.158 -850.031,849.368C-850.083,849.577 -850.126,849.784 -850.164,849.993L-850.501,851.899L-849.753,851.899L-849.844,852.474L-852.129,852.474L-852.038,851.899L-851.242,851.899L-850.603,848.249L-851.38,848.249L-851.288,847.715L-849.771,847.715L-849.917,848.568Z" style="fill:rgb(182,179,178);fill-rule:nonzero;"></path> <path d="M-846.015,850.028C-845.96,849.7 -845.866,849.386 -845.729,849.086C-845.591,848.782 -845.385,848.507 -845.111,848.258C-844.855,848.022 -844.574,847.85 -844.267,847.733C-843.958,847.621 -843.642,847.563 -843.319,847.563C-842.948,847.563 -842.638,847.632 -842.387,847.768C-842.138,847.9 -841.944,848.081 -841.807,848.308C-841.669,848.537 -841.584,848.802 -841.55,849.106C-841.517,849.413 -841.53,849.734 -841.592,850.066C-841.647,850.403 -841.748,850.717 -841.893,851.015C-842.039,851.311 -842.224,851.574 -842.446,851.8C-842.668,852.023 -842.928,852.205 -843.227,852.339C-843.525,852.469 -843.856,852.537 -844.223,852.537C-844.584,852.537 -844.893,852.478 -845.155,852.359C-845.418,852.242 -845.627,852.033 -845.786,851.734C-845.925,851.471 -846.013,851.202 -846.047,850.923C-846.081,850.641 -846.069,850.344 -846.015,850.028M-845.229,850.037C-845.264,850.257 -845.285,850.486 -845.288,850.729C-845.291,850.976 -845.238,851.188 -845.127,851.369C-845.031,851.554 -844.898,851.701 -844.731,851.812C-844.563,851.924 -844.364,851.981 -844.132,851.981C-843.9,851.981 -843.666,851.911 -843.43,851.771C-843.19,851.632 -843.001,851.459 -842.862,851.26C-842.728,851.069 -842.625,850.869 -842.55,850.653C-842.478,850.438 -842.422,850.222 -842.386,850.009C-842.349,849.782 -842.333,849.563 -842.335,849.338C-842.338,849.117 -842.378,848.917 -842.455,848.738C-842.531,848.556 -842.65,848.413 -842.811,848.299C-842.972,848.185 -843.189,848.129 -843.464,848.129C-843.726,848.129 -843.963,848.187 -844.176,848.307C-844.389,848.429 -844.582,848.592 -844.752,848.805C-844.879,848.983 -844.983,849.184 -845.064,849.409C-845.144,849.636 -845.199,849.842 -845.229,850.037" style="fill:rgb(182,179,178);fill-rule:nonzero;"></path> <path d="M-840.733,847.713L-838.703,847.713L-838.795,848.248L-839.554,848.248L-839.07,851.842L-839.005,851.842L-837.242,848.248L-838.001,848.248L-837.909,847.713L-835.926,847.713L-836.018,848.248L-836.501,848.248L-838.678,852.474L-839.617,852.474L-840.35,848.248L-840.825,848.248L-840.733,847.713Z" style="fill:rgb(182,179,178);fill-rule:nonzero;"></path> <path d="M-832.955,851.533C-833.175,851.892 -833.422,852.149 -833.696,852.306C-833.97,852.46 -834.303,852.536 -834.693,852.536C-834.863,852.536 -835.024,852.516 -835.176,852.482C-835.329,852.446 -835.463,852.385 -835.578,852.305C-835.695,852.221 -835.791,852.115 -835.867,851.99C-835.944,851.86 -835.987,851.707 -836,851.532C-836.005,851.417 -836.002,851.322 -835.99,851.252C-835.978,851.179 -835.968,851.123 -835.962,851.084C-835.92,850.816 -835.831,850.593 -835.696,850.405C-835.563,850.22 -835.401,850.068 -835.213,849.951C-835.023,849.831 -834.816,849.745 -834.587,849.69C-834.358,849.636 -834.125,849.607 -833.887,849.607C-833.802,849.607 -833.715,849.606 -833.628,849.603C-833.538,849.6 -833.452,849.598 -833.367,849.598L-832.618,849.598L-832.535,849.161C-832.522,848.991 -832.524,848.843 -832.539,848.732C-832.554,848.615 -832.616,848.494 -832.718,848.367C-832.791,848.282 -832.887,848.217 -833.01,848.175C-833.133,848.132 -833.254,848.112 -833.376,848.112C-833.577,848.112 -833.755,848.133 -833.91,848.175C-834.065,848.217 -834.228,848.324 -834.4,848.494C-834.478,848.574 -834.537,848.665 -834.577,848.761C-834.618,848.864 -834.652,848.962 -834.682,849.062L-835.451,849.062C-835.371,848.713 -835.224,848.422 -835.011,848.184C-834.798,847.947 -834.517,847.777 -834.171,847.666C-834.03,847.614 -833.891,847.587 -833.755,847.578C-833.617,847.565 -833.479,847.56 -833.338,847.56C-833.082,847.56 -832.857,847.594 -832.663,847.649C-832.468,847.71 -832.282,847.814 -832.104,847.973C-831.94,848.123 -831.847,848.302 -831.826,848.507C-831.805,848.711 -831.812,848.926 -831.848,849.16L-832.335,851.895L-831.574,851.895L-831.667,852.471L-833.112,852.471L-832.955,851.533ZM-835.176,851.106C-835.225,851.367 -835.193,851.581 -835.082,851.748C-834.967,851.916 -834.773,852 -834.5,852C-834.225,852 -833.987,851.948 -833.782,851.843C-833.578,851.741 -833.407,851.605 -833.266,851.435C-833.127,851.264 -833.012,851.066 -832.922,850.846C-832.835,850.622 -832.767,850.397 -832.718,850.165C-832.826,850.146 -832.947,850.135 -833.074,850.133C-833.201,850.132 -833.323,850.129 -833.44,850.129C-833.623,850.129 -833.807,850.134 -833.993,850.147C-834.178,850.16 -834.351,850.199 -834.513,850.262C-834.675,850.325 -834.816,850.423 -834.934,850.55C-835.052,850.685 -835.134,850.867 -835.176,851.106" style="fill:rgb(182,179,178);fill-rule:nonzero;"></path> <path d="M-829.08,847.713L-827.71,847.713L-827.802,848.247L-829.173,848.247L-829.712,851.333C-829.725,851.409 -829.73,851.489 -829.73,851.568C-829.73,851.642 -829.719,851.71 -829.693,851.774C-829.669,851.837 -829.63,851.89 -829.576,851.929C-829.521,851.968 -829.446,851.99 -829.347,851.99C-829.23,851.99 -829.135,851.955 -829.056,851.884C-828.974,851.814 -828.913,851.727 -828.868,851.626C-828.822,851.521 -828.787,851.414 -828.762,851.305C-828.739,851.197 -828.72,851.1 -828.706,851.014L-828.113,851.014C-828.125,851.072 -828.136,851.131 -828.145,851.188C-828.154,851.241 -828.165,851.3 -828.176,851.362C-828.225,851.586 -828.315,851.8 -828.447,852.004C-828.577,852.209 -828.761,852.358 -828.999,852.457C-829.085,852.475 -829.169,852.492 -829.255,852.511C-829.341,852.528 -829.426,852.537 -829.511,852.537C-829.596,852.537 -829.668,852.531 -829.729,852.517C-829.791,852.508 -829.863,852.496 -829.948,852.483C-830.095,852.454 -830.211,852.381 -830.296,852.274C-830.381,852.164 -830.439,852.037 -830.469,851.898C-830.482,851.849 -830.487,851.788 -830.484,851.71C-830.48,851.636 -830.473,851.555 -830.465,851.473C-830.456,851.39 -830.445,851.312 -830.432,851.237C-830.421,851.161 -830.409,851.096 -830.395,851.043L-829.911,848.248L-830.734,848.248L-830.642,847.714L-829.82,847.714L-829.656,846.78L-828.87,846.507L-829.08,847.713Z" style="fill:rgb(182,179,178);fill-rule:nonzero;"></path> <path d="M-825.589,852.474L-827.837,852.474L-827.746,851.898L-826.977,851.898L-826.337,848.248L-827.096,848.248L-827.004,847.714L-825.506,847.714L-826.236,851.899L-825.496,851.899L-825.589,852.474ZM-825.142,845.939L-825.279,846.706L-826.13,846.706L-825.992,845.939L-825.142,845.939Z" style="fill:rgb(182,179,178);fill-rule:nonzero;"></path> <path d="M-823.003,848.568C-822.819,848.221 -822.601,847.967 -822.345,847.806C-822.088,847.646 -821.768,847.562 -821.384,847.562C-821.02,847.562 -820.73,847.646 -820.516,847.806C-820.304,847.967 -820.168,848.221 -820.115,848.568C-820.115,848.672 -820.123,848.773 -820.137,848.874C-820.151,848.976 -820.168,849.079 -820.185,849.181L-820.662,851.899L-819.912,851.899L-820.003,852.474L-822.243,852.474L-822.152,851.899L-821.403,851.899L-820.973,849.436C-820.942,849.27 -820.925,849.112 -820.923,848.957C-820.92,848.801 -820.941,848.664 -820.985,848.542C-821.032,848.421 -821.109,848.323 -821.22,848.248C-821.326,848.177 -821.483,848.14 -821.685,848.14C-821.824,848.14 -821.939,848.147 -822.026,848.163C-822.115,848.177 -822.227,848.224 -822.361,848.304C-822.475,848.373 -822.57,848.442 -822.638,848.515C-822.71,848.586 -822.778,848.672 -822.846,848.768C-822.973,848.958 -823.063,849.158 -823.115,849.368C-823.166,849.577 -823.211,849.784 -823.247,849.993L-823.586,851.899L-822.837,851.899L-822.927,852.474L-825.213,852.474L-825.12,851.899L-824.326,851.899L-823.686,848.249L-824.463,848.249L-824.372,847.715L-822.855,847.715L-823.003,848.568Z" style="fill:rgb(182,179,178);fill-rule:nonzero;"></path> <path d="M-818.505,852.939C-818.505,853.084 -818.476,853.206 -818.415,853.299C-818.354,853.392 -818.277,853.467 -818.182,853.522C-818.089,853.579 -817.978,853.616 -817.852,853.637C-817.727,853.658 -817.601,853.668 -817.473,853.668C-817.37,853.668 -817.258,853.658 -817.139,853.637C-817.02,853.616 -816.906,853.583 -816.793,853.542C-816.68,853.498 -816.572,853.438 -816.477,853.369C-816.379,853.301 -816.294,853.219 -816.22,853.117C-816.088,852.943 -815.994,852.749 -815.941,852.54C-815.89,852.332 -815.842,852.125 -815.8,851.924L-815.756,851.635C-815.888,851.799 -816.021,851.937 -816.149,852.048C-816.277,852.161 -816.412,852.255 -816.555,852.328C-816.699,852.398 -816.85,852.454 -817.008,852.487C-817.167,852.518 -817.34,852.536 -817.529,852.536C-817.87,852.536 -818.155,852.468 -818.384,852.338C-818.613,852.204 -818.791,852.024 -818.919,851.803C-819.045,851.58 -819.126,851.323 -819.156,851.033C-819.185,850.737 -819.173,850.438 -819.119,850.128C-819.064,849.813 -818.991,849.517 -818.9,849.251C-818.81,848.984 -818.666,848.724 -818.471,848.465C-818.354,848.317 -818.221,848.183 -818.073,848.069C-817.923,847.958 -817.768,847.864 -817.606,847.788C-817.446,847.714 -817.281,847.655 -817.118,847.618C-816.953,847.584 -816.798,847.561 -816.653,847.561C-816.31,847.561 -816.01,847.635 -815.747,847.784C-815.486,847.929 -815.299,848.157 -815.19,848.465L-815.063,847.713L-813.545,847.713L-813.635,848.247L-814.424,848.247L-815.081,852.007C-815.11,852.182 -815.144,852.347 -815.181,852.501C-815.218,852.651 -815.268,852.794 -815.327,852.933C-815.39,853.071 -815.469,853.205 -815.565,853.336C-815.664,853.466 -815.784,853.595 -815.931,853.723C-816.041,853.813 -816.163,853.89 -816.301,853.952C-816.438,854.012 -816.579,854.061 -816.726,854.105C-816.872,854.148 -817.018,854.18 -817.164,854.2C-817.311,854.219 -817.445,854.225 -817.567,854.225C-817.786,854.225 -818.006,854.207 -818.224,854.174C-818.443,854.138 -818.637,854.074 -818.806,853.982C-818.973,853.887 -819.106,853.759 -819.206,853.591C-819.307,853.421 -819.349,853.206 -819.331,852.939L-818.505,852.939ZM-817.272,851.971C-817.041,851.971 -816.817,851.915 -816.6,851.803C-816.384,851.692 -816.193,851.541 -816.03,851.362C-815.884,851.202 -815.766,851.016 -815.678,850.798C-815.589,850.585 -815.53,850.376 -815.499,850.173C-815.45,849.906 -815.426,849.671 -815.426,849.462C-815.426,849.25 -815.481,849.027 -815.589,848.797C-815.676,848.623 -815.804,848.476 -815.974,848.366C-816.145,848.25 -816.337,848.193 -816.551,848.193C-816.819,848.193 -817.056,848.25 -817.259,848.366C-817.463,848.475 -817.638,848.625 -817.78,848.805C-817.923,848.991 -818.04,849.193 -818.128,849.421C-818.217,849.651 -818.283,849.879 -818.326,850.109C-818.361,850.34 -818.374,850.565 -818.366,850.785C-818.357,851.003 -818.304,851.206 -818.207,851.394C-818.115,851.572 -817.99,851.711 -817.833,851.814C-817.672,851.92 -817.486,851.971 -817.272,851.971" style="fill:rgb(182,179,178);fill-rule:nonzero;"></path> <path d="M-810.255,845.939L-804.953,845.939L-805.318,848.03L-806.049,848.03L-805.803,846.634L-807.32,846.634L-808.232,851.871L-807.219,851.871L-807.32,852.474L-810.136,852.474L-810.033,851.871L-809.028,851.871L-808.115,846.634L-809.641,846.634L-809.888,848.03L-810.62,848.03L-810.255,845.939Z" style="fill:rgb(182,179,178);fill-rule:nonzero;"></path> <path d="M-805.218,850.028C-805.162,849.7 -805.067,849.386 -804.929,849.086C-804.791,848.782 -804.587,848.507 -804.311,848.258C-804.056,848.022 -803.775,847.85 -803.467,847.733C-803.159,847.621 -802.843,847.563 -802.52,847.563C-802.149,847.563 -801.839,847.632 -801.587,847.768C-801.338,847.9 -801.145,848.081 -801.009,848.308C-800.871,848.537 -800.786,848.802 -800.753,849.106C-800.721,849.413 -800.733,849.734 -800.794,850.066C-800.849,850.403 -800.949,850.717 -801.097,851.015C-801.242,851.311 -801.426,851.574 -801.65,851.8C-801.871,852.023 -802.131,852.205 -802.431,852.339C-802.728,852.469 -803.062,852.537 -803.427,852.537C-803.787,852.537 -804.098,852.478 -804.36,852.359C-804.624,852.242 -804.832,852.033 -804.99,851.734C-805.13,851.471 -805.218,851.202 -805.251,850.923C-805.283,850.641 -805.272,850.344 -805.218,850.028M-804.433,850.037C-804.468,850.257 -804.489,850.486 -804.491,850.729C-804.495,850.976 -804.441,851.188 -804.331,851.369C-804.235,851.554 -804.102,851.701 -803.934,851.812C-803.766,851.924 -803.567,851.981 -803.335,851.981C-803.103,851.981 -802.868,851.911 -802.632,851.771C-802.392,851.632 -802.204,851.459 -802.063,851.26C-801.93,851.069 -801.827,850.869 -801.754,850.653C-801.681,850.438 -801.625,850.222 -801.587,850.009C-801.551,849.782 -801.534,849.563 -801.538,849.338C-801.541,849.117 -801.58,848.917 -801.658,848.738C-801.733,848.556 -801.851,848.413 -802.014,848.299C-802.174,848.185 -802.391,848.129 -802.668,848.129C-802.929,848.129 -803.166,848.187 -803.379,848.307C-803.592,848.429 -803.785,848.592 -803.955,848.805C-804.082,848.983 -804.185,849.184 -804.267,849.409C-804.346,849.636 -804.401,849.842 -804.433,850.037" style="fill:rgb(182,179,178);fill-rule:nonzero;"></path> <path d="M-798.428,848.568C-798.366,848.418 -798.284,848.276 -798.181,848.154C-798.077,848.03 -797.956,847.924 -797.823,847.84C-797.689,847.755 -797.547,847.69 -797.394,847.637C-797.241,847.591 -797.082,847.563 -796.919,847.563C-796.552,847.563 -796.274,847.655 -796.078,847.835C-795.883,848.015 -795.767,848.258 -795.73,848.568C-795.674,848.418 -795.592,848.276 -795.484,848.154C-795.373,848.03 -795.25,847.924 -795.114,847.84C-794.976,847.755 -794.831,847.69 -794.675,847.637C-794.519,847.591 -794.365,847.563 -794.214,847.563C-793.844,847.563 -793.541,847.658 -793.309,847.845C-793.077,848.031 -792.959,848.27 -792.952,848.569C-792.952,848.74 -792.96,848.881 -792.975,848.994C-792.99,849.105 -793.005,849.213 -793.017,849.319L-793.475,851.899L-792.779,851.899L-792.871,852.474L-795.055,852.474L-794.966,851.899L-794.215,851.899L-793.795,849.515C-793.77,849.353 -793.747,849.189 -793.726,849.025C-793.705,848.86 -793.713,848.714 -793.75,848.584C-793.786,848.451 -793.859,848.347 -793.968,848.264C-794.078,848.181 -794.247,848.141 -794.472,848.141C-794.697,848.141 -794.905,848.203 -795.094,848.33C-795.282,848.451 -795.44,848.613 -795.568,848.807C-795.664,848.965 -795.736,849.143 -795.783,849.34C-795.829,849.534 -795.867,849.727 -795.898,849.902L-796.244,851.9L-795.505,851.9L-795.595,852.475L-797.818,852.475L-797.726,851.9L-796.984,851.9L-796.564,849.516C-796.542,849.354 -796.516,849.19 -796.496,849.026C-796.475,848.861 -796.482,848.715 -796.518,848.585C-796.555,848.452 -796.628,848.348 -796.739,848.265C-796.848,848.182 -797.015,848.142 -797.24,848.142C-797.46,848.142 -797.663,848.204 -797.852,848.331C-798.041,848.452 -798.199,848.614 -798.328,848.808C-798.432,848.966 -798.505,849.144 -798.552,849.341C-798.595,849.535 -798.635,849.728 -798.666,849.903L-799.014,851.901L-798.264,851.901L-798.354,852.476L-800.622,852.476L-800.53,851.901L-799.754,851.901L-799.113,848.251L-799.889,848.251L-799.799,847.717L-798.282,847.717L-798.428,848.568Z" style="fill:rgb(182,179,178);fill-rule:nonzero;"></path> <path d="M-792.012,850.028C-791.957,849.7 -791.861,849.386 -791.723,849.086C-791.586,848.782 -791.381,848.507 -791.106,848.258C-790.851,848.022 -790.569,847.85 -790.261,847.733C-789.954,847.621 -789.638,847.563 -789.314,847.563C-788.943,847.563 -788.632,847.632 -788.383,847.768C-788.132,847.9 -787.939,848.081 -787.802,848.308C-787.665,848.537 -787.58,848.802 -787.546,849.106C-787.513,849.413 -787.526,849.734 -787.588,850.066C-787.642,850.403 -787.743,850.717 -787.888,851.015C-788.036,851.311 -788.22,851.574 -788.442,851.8C-788.664,852.023 -788.924,852.205 -789.223,852.339C-789.52,852.469 -789.853,852.537 -790.219,852.537C-790.578,852.537 -790.889,852.478 -791.15,852.359C-791.413,852.242 -791.625,852.033 -791.781,851.734C-791.921,851.471 -792.008,851.202 -792.043,850.923C-792.076,850.641 -792.066,850.344 -792.012,850.028M-791.225,850.037C-791.263,850.257 -791.282,850.486 -791.284,850.729C-791.286,850.976 -791.235,851.188 -791.124,851.369C-791.026,851.554 -790.895,851.701 -790.727,851.812C-790.559,851.924 -790.36,851.981 -790.127,851.981C-789.898,851.981 -789.663,851.911 -789.424,851.771C-789.185,851.632 -788.997,851.459 -788.857,851.26C-788.723,851.069 -788.621,850.869 -788.545,850.653C-788.473,850.438 -788.419,850.222 -788.383,850.009C-788.345,849.782 -788.328,849.563 -788.331,849.338C-788.334,849.117 -788.374,848.917 -788.451,848.738C-788.526,848.556 -788.646,848.413 -788.807,848.299C-788.968,848.185 -789.184,848.129 -789.46,848.129C-789.722,848.129 -789.96,848.187 -790.172,848.307C-790.387,848.429 -790.578,848.592 -790.749,848.805C-790.877,848.983 -790.981,849.184 -791.06,849.409C-791.14,849.636 -791.194,849.842 -791.225,850.037" style="fill:rgb(182,179,178);fill-rule:nonzero;"></path> <path d="M-785.247,848.66C-785.138,848.459 -785.034,848.293 -784.932,848.158C-784.833,848.026 -784.722,847.919 -784.599,847.845C-784.477,847.77 -784.34,847.715 -784.185,847.681C-784.029,847.647 -783.841,847.628 -783.621,847.628L-783.432,847.628L-783.55,848.312C-783.599,848.302 -783.65,848.293 -783.706,848.287C-783.761,848.28 -783.812,848.276 -783.862,848.276C-784.136,848.276 -784.367,848.331 -784.556,848.434C-784.745,848.538 -784.903,848.672 -785.033,848.837C-785.159,849.006 -785.26,849.199 -785.333,849.418C-785.406,849.638 -785.461,849.857 -785.499,850.08L-785.818,851.898L-784.913,851.898L-785.004,852.474L-787.409,852.474L-787.319,851.898L-786.558,851.898L-785.918,848.248L-786.679,848.248L-786.586,847.714L-785.088,847.714L-785.247,848.66Z" style="fill:rgb(182,179,178);fill-rule:nonzero;"></path> <path d="M-781.556,848.66C-781.448,848.459 -781.341,848.293 -781.242,848.158C-781.141,848.026 -781.029,847.919 -780.908,847.845C-780.787,847.77 -780.646,847.715 -780.491,847.681C-780.335,847.647 -780.149,847.628 -779.929,847.628L-779.737,847.628L-779.856,848.312C-779.906,848.302 -779.957,848.293 -780.013,848.287C-780.066,848.28 -780.119,848.276 -780.168,848.276C-780.44,848.276 -780.672,848.331 -780.862,848.434C-781.051,848.538 -781.208,848.672 -781.336,848.837C-781.464,849.006 -781.565,849.199 -781.638,849.418C-781.713,849.638 -781.767,849.857 -781.803,850.08L-782.123,851.898L-781.218,851.898L-781.309,852.474L-783.713,852.474L-783.62,851.898L-782.863,851.898L-782.224,848.248L-782.981,848.248L-782.89,847.714L-781.391,847.714L-781.556,848.66Z" style="fill:rgb(182,179,178);fill-rule:nonzero;"></path> <path d="M-779.683,850.028C-779.628,849.7 -779.532,849.386 -779.395,849.086C-779.258,848.782 -779.052,848.507 -778.779,848.258C-778.523,848.022 -778.243,847.85 -777.933,847.733C-777.625,847.621 -777.31,847.563 -776.987,847.563C-776.617,847.563 -776.306,847.632 -776.055,847.768C-775.805,847.9 -775.612,848.081 -775.473,848.308C-775.337,848.537 -775.252,848.802 -775.22,849.106C-775.185,849.413 -775.199,849.734 -775.26,850.066C-775.315,850.403 -775.416,850.717 -775.562,851.015C-775.708,851.311 -775.894,851.574 -776.115,851.8C-776.337,852.023 -776.597,852.205 -776.897,852.339C-777.196,852.469 -777.528,852.537 -777.893,852.537C-778.251,852.537 -778.563,852.478 -778.825,852.359C-779.087,852.242 -779.299,852.033 -779.457,851.734C-779.596,851.471 -779.683,851.202 -779.716,850.923C-779.749,850.641 -779.737,850.344 -779.683,850.028M-778.897,850.037C-778.933,850.257 -778.954,850.486 -778.957,850.729C-778.96,850.976 -778.906,851.188 -778.797,851.369C-778.699,851.554 -778.568,851.701 -778.399,851.812C-778.232,851.924 -778.033,851.981 -777.801,851.981C-777.571,851.981 -777.336,851.911 -777.099,851.771C-776.861,851.632 -776.672,851.459 -776.532,851.26C-776.397,851.069 -776.294,850.869 -776.221,850.653C-776.148,850.438 -776.093,850.222 -776.056,850.009C-776.019,849.782 -776.002,849.563 -776.005,849.338C-776.009,849.117 -776.049,848.917 -776.125,848.738C-776.202,848.556 -776.32,848.413 -776.482,848.299C-776.643,848.185 -776.861,848.129 -777.135,848.129C-777.397,848.129 -777.635,848.187 -777.848,848.307C-778.06,848.429 -778.251,848.592 -778.423,848.805C-778.55,848.983 -778.655,849.184 -778.734,849.409C-778.812,849.636 -778.866,849.842 -778.897,850.037" style="fill:rgb(182,179,178);fill-rule:nonzero;"></path> <path d="M-774.4,847.713L-772.271,847.713L-772.363,848.248L-773.157,848.248L-772.863,851.799L-772.801,851.799L-770.964,847.713L-769.921,847.713L-769.493,851.799L-769.429,851.799L-767.911,848.248L-768.708,848.248L-768.615,847.713L-766.541,847.713L-766.631,848.248L-767.17,848.248L-769.128,852.474L-770.104,852.474L-770.525,848.303L-770.588,848.303L-772.473,852.474L-773.45,852.474L-773.953,848.248L-774.491,848.248L-774.4,847.713Z" style="fill:rgb(182,179,178);fill-rule:nonzero;"></path> <path d="M-763.213,845.939L-757.913,845.939L-758.279,848.03L-759.01,848.03L-758.762,846.634L-760.281,846.634L-761.194,851.871L-760.181,851.871L-760.281,852.474L-763.096,852.474L-762.994,851.871L-761.988,851.871L-761.075,846.634L-762.602,846.634L-762.849,848.03L-763.579,848.03L-763.213,845.939Z" style="fill:rgb(182,179,178);fill-rule:nonzero;"></path> <path d="M-758.178,850.028C-758.124,849.7 -758.027,849.386 -757.89,849.086C-757.753,848.782 -757.548,848.507 -757.274,848.258C-757.019,848.022 -756.736,847.85 -756.43,847.733C-756.12,847.621 -755.806,847.563 -755.482,847.563C-755.11,847.563 -754.799,847.632 -754.549,847.768C-754.299,847.9 -754.107,848.081 -753.969,848.308C-753.832,848.537 -753.746,848.802 -753.714,849.106C-753.681,849.413 -753.695,849.734 -753.756,850.066C-753.811,850.403 -753.91,850.717 -754.056,851.015C-754.202,851.311 -754.388,851.574 -754.61,851.8C-754.832,852.023 -755.093,852.205 -755.392,852.339C-755.69,852.469 -756.021,852.537 -756.388,852.537C-756.746,852.537 -757.058,852.478 -757.32,852.359C-757.582,852.242 -757.791,852.033 -757.951,851.734C-758.091,851.471 -758.177,851.202 -758.212,850.923C-758.244,850.641 -758.234,850.344 -758.178,850.028M-757.392,850.037C-757.429,850.257 -757.449,850.486 -757.452,850.729C-757.454,850.976 -757.401,851.188 -757.293,851.369C-757.194,851.554 -757.063,851.701 -756.895,851.812C-756.728,851.924 -756.528,851.981 -756.297,851.981C-756.065,851.981 -755.829,851.911 -755.594,851.771C-755.356,851.632 -755.166,851.459 -755.026,851.26C-754.893,851.069 -754.79,850.869 -754.714,850.653C-754.642,850.438 -754.586,850.222 -754.549,850.009C-754.513,849.782 -754.497,849.563 -754.5,849.338C-754.503,849.117 -754.542,848.917 -754.62,848.738C-754.696,848.556 -754.814,848.413 -754.976,848.299C-755.137,848.185 -755.356,848.129 -755.629,848.129C-755.89,848.129 -756.129,848.187 -756.34,848.307C-756.554,848.429 -756.745,848.592 -756.917,848.805C-757.044,848.983 -757.149,849.184 -757.227,849.409C-757.308,849.636 -757.362,849.842 -757.392,850.037" style="fill:rgb(182,179,178);fill-rule:nonzero;"></path> <path d="M-752.502,852.939C-752.502,853.084 -752.472,853.206 -752.411,853.299C-752.35,853.392 -752.272,853.467 -752.177,853.522C-752.084,853.579 -751.973,853.616 -751.848,853.637C-751.725,853.658 -751.597,853.668 -751.469,853.668C-751.365,853.668 -751.254,853.658 -751.136,853.637C-751.017,853.616 -750.902,853.583 -750.789,853.542C-750.675,853.498 -750.57,853.438 -750.473,853.369C-750.376,853.301 -750.291,853.219 -750.217,853.117C-750.085,852.943 -749.99,852.749 -749.938,852.54C-749.887,852.332 -749.839,852.125 -749.797,851.924L-749.751,851.635C-749.884,851.799 -750.015,851.937 -750.144,852.048C-750.272,852.161 -750.408,852.255 -750.551,852.328C-750.694,852.398 -750.844,852.454 -751.003,852.487C-751.162,852.518 -751.336,852.536 -751.524,852.536C-751.865,852.536 -752.149,852.468 -752.379,852.338C-752.607,852.204 -752.785,852.024 -752.914,851.803C-753.042,851.58 -753.121,851.323 -753.151,851.033C-753.182,850.737 -753.17,850.438 -753.115,850.128C-753.059,849.813 -752.987,849.517 -752.894,849.251C-752.803,848.984 -752.661,848.724 -752.465,848.465C-752.35,848.317 -752.217,848.183 -752.068,848.069C-751.919,847.958 -751.764,847.864 -751.602,847.788C-751.44,847.714 -751.278,847.655 -751.113,847.618C-750.948,847.584 -750.793,847.561 -750.647,847.561C-750.305,847.561 -750.003,847.635 -749.743,847.784C-749.481,847.929 -749.293,848.157 -749.185,848.465L-749.058,847.713L-747.539,847.713L-747.631,848.247L-748.417,848.247L-749.075,852.007C-749.108,852.182 -749.141,852.347 -749.177,852.501C-749.212,852.651 -749.261,852.794 -749.323,852.933C-749.384,853.071 -749.463,853.205 -749.56,853.336C-749.657,853.466 -749.781,853.595 -749.927,853.723C-750.036,853.813 -750.16,853.89 -750.297,853.952C-750.434,854.012 -750.575,854.061 -750.72,854.105C-750.867,854.148 -751.013,854.18 -751.16,854.2C-751.305,854.219 -751.44,854.225 -751.561,854.225C-751.78,854.225 -751.999,854.207 -752.22,854.174C-752.44,854.138 -752.632,854.074 -752.8,853.982C-752.967,853.887 -753.103,853.759 -753.202,853.591C-753.304,853.421 -753.344,853.206 -753.325,852.939L-752.502,852.939ZM-751.269,851.971C-751.038,851.971 -750.814,851.915 -750.597,851.803C-750.381,851.692 -750.19,851.541 -750.025,851.362C-749.879,851.202 -749.763,851.016 -749.673,850.798C-749.586,850.585 -749.527,850.376 -749.494,850.173C-749.448,849.906 -749.422,849.671 -749.422,849.462C-749.422,849.25 -749.478,849.027 -749.588,848.797C-749.672,848.623 -749.801,848.476 -749.971,848.366C-750.141,848.25 -750.332,848.193 -750.547,848.193C-750.815,848.193 -751.05,848.25 -751.255,848.366C-751.458,848.475 -751.633,848.625 -751.776,848.805C-751.921,848.991 -752.034,849.193 -752.124,849.421C-752.212,849.651 -752.277,849.879 -752.32,850.109C-752.357,850.34 -752.371,850.565 -752.362,850.785C-752.353,851.003 -752.299,851.206 -752.201,851.394C-752.109,851.572 -751.985,851.711 -751.826,851.814C-751.669,851.92 -751.483,851.971 -751.269,851.971" style="fill:rgb(182,179,178);fill-rule:nonzero;"></path> <path d="M-743.134,850.238L-746.653,850.238C-746.684,850.468 -746.688,850.694 -746.668,850.915C-746.647,851.132 -746.575,851.334 -746.453,851.516C-746.331,851.708 -746.191,851.835 -746.029,851.893C-745.867,851.954 -745.658,851.982 -745.402,851.982C-745.257,851.982 -745.11,851.957 -744.967,851.905C-744.825,851.851 -744.691,851.782 -744.567,851.695C-744.441,851.607 -744.33,851.501 -744.237,851.379C-744.141,851.258 -744.072,851.128 -744.031,850.986L-743.326,850.986C-743.417,851.242 -743.538,851.467 -743.692,851.664C-743.845,851.855 -744.021,852.019 -744.223,852.15C-744.424,852.282 -744.644,852.378 -744.885,852.442C-745.124,852.506 -745.373,852.538 -745.63,852.538C-746.021,852.538 -746.342,852.478 -746.598,852.356C-746.854,852.235 -747.05,852.062 -747.188,851.843C-747.325,851.627 -747.408,851.367 -747.439,851.066C-747.469,850.771 -747.454,850.443 -747.392,850.081C-747.344,849.829 -747.271,849.571 -747.175,849.313C-747.076,849.056 -746.945,848.812 -746.781,848.586C-746.538,848.258 -746.231,848.006 -745.863,847.829C-745.493,847.653 -745.121,847.562 -744.743,847.562C-744.523,847.562 -744.303,847.601 -744.076,847.67C-743.85,847.738 -743.664,847.846 -743.519,847.982C-743.36,848.141 -743.245,848.321 -743.17,848.515C-743.098,848.715 -743.055,848.927 -743.044,849.161C-743.038,849.335 -743.041,849.492 -743.052,849.636C-743.066,849.773 -743.086,849.933 -743.116,850.109L-743.134,850.238ZM-743.83,849.691C-743.798,849.501 -743.793,849.314 -743.815,849.125C-743.838,848.937 -743.891,848.767 -743.973,848.619C-744.054,848.47 -744.167,848.352 -744.31,848.253C-744.453,848.159 -744.635,848.113 -744.853,848.113C-745.073,848.113 -745.275,848.158 -745.461,848.248C-745.647,848.341 -745.81,848.46 -745.95,848.611C-746.089,848.757 -746.209,848.926 -746.307,849.115C-746.404,849.305 -746.478,849.494 -746.526,849.691L-743.83,849.691Z" style="fill:rgb(182,179,178);fill-rule:nonzero;"></path> <path d="M-740.74,847.713L-739.369,847.713L-739.461,848.247L-740.832,848.247L-741.372,851.333C-741.384,851.409 -741.39,851.489 -741.39,851.568C-741.39,851.642 -741.377,851.71 -741.354,851.774C-741.33,851.837 -741.291,851.89 -741.235,851.929C-741.179,851.968 -741.103,851.99 -741.006,851.99C-740.891,851.99 -740.793,851.955 -740.714,851.884C-740.636,851.814 -740.573,851.727 -740.526,851.626C-740.479,851.521 -740.446,851.414 -740.421,851.305C-740.396,851.197 -740.379,851.1 -740.367,851.014L-739.772,851.014C-739.785,851.072 -739.795,851.131 -739.805,851.188C-739.814,851.241 -739.824,851.3 -739.836,851.362C-739.884,851.586 -739.975,851.8 -740.107,852.004C-740.238,852.209 -740.421,852.358 -740.66,852.457C-740.745,852.475 -740.832,852.492 -740.915,852.511C-741.001,852.528 -741.087,852.537 -741.17,852.537C-741.257,852.537 -741.33,852.531 -741.39,852.517C-741.451,852.508 -741.523,852.496 -741.611,852.483C-741.756,852.454 -741.872,852.381 -741.958,852.274C-742.043,852.164 -742.101,852.037 -742.132,851.898C-742.144,851.849 -742.148,851.788 -742.145,851.71C-742.143,851.636 -742.136,851.555 -742.128,851.473C-742.118,851.39 -742.107,851.312 -742.094,851.237C-742.083,851.161 -742.07,851.096 -742.059,851.043L-741.574,848.248L-742.397,848.248L-742.306,847.714L-741.484,847.714L-741.318,846.78L-740.532,846.507L-740.74,847.713Z" style="fill:rgb(182,179,178);fill-rule:nonzero;"></path> <path d="M-739.543,852.474L-739.451,851.898L-738.684,851.898L-737.733,846.48L-738.5,846.48L-738.41,845.939L-736.902,845.939L-737.322,848.34C-736.853,847.822 -736.312,847.562 -735.704,847.562C-735.491,847.562 -735.281,847.602 -735.078,847.68C-734.874,847.755 -734.717,847.879 -734.608,848.048C-734.492,848.223 -734.437,848.41 -734.44,848.599C-734.443,848.791 -734.465,848.996 -734.508,849.216L-734.973,851.898L-734.186,851.898L-734.278,852.474L-736.591,852.474L-736.498,851.898L-735.712,851.898L-735.283,849.453C-735.264,849.337 -735.246,849.219 -735.229,849.093C-735.21,848.972 -735.207,848.848 -735.215,848.739C-735.224,848.626 -735.254,848.519 -735.307,848.424C-735.36,848.326 -735.446,848.248 -735.568,848.194C-735.634,848.164 -735.693,848.143 -735.747,848.131C-735.798,848.12 -735.867,848.114 -735.952,848.114C-736.088,848.114 -736.209,848.124 -736.318,848.144C-736.428,848.165 -736.542,848.209 -736.665,848.276C-736.829,848.366 -736.965,848.464 -737.072,848.584C-737.178,848.701 -737.265,848.829 -737.331,848.968C-737.399,849.102 -737.451,849.247 -737.488,849.396C-737.524,849.544 -737.555,849.693 -737.578,849.839L-737.945,851.9L-737.16,851.9L-737.25,852.476L-739.543,852.476L-739.543,852.474Z" style="fill:rgb(182,179,178);fill-rule:nonzero;"></path> <path d="M-729.087,850.238L-732.607,850.238C-732.637,850.468 -732.641,850.694 -732.622,850.915C-732.6,851.132 -732.528,851.334 -732.406,851.516C-732.284,851.708 -732.143,851.835 -731.982,851.893C-731.82,851.954 -731.61,851.982 -731.356,851.982C-731.21,851.982 -731.064,851.957 -730.921,851.905C-730.778,851.851 -730.644,851.782 -730.52,851.695C-730.394,851.607 -730.285,851.501 -730.192,851.379C-730.095,851.258 -730.027,851.128 -729.984,850.986L-729.282,850.986C-729.372,851.242 -729.493,851.467 -729.647,851.664C-729.799,851.855 -729.976,852.019 -730.178,852.15C-730.378,852.282 -730.597,852.378 -730.84,852.442C-731.08,852.506 -731.328,852.538 -731.584,852.538C-731.974,852.538 -732.296,852.478 -732.552,852.356C-732.809,852.235 -733.007,852.062 -733.143,851.843C-733.279,851.627 -733.361,851.367 -733.393,851.066C-733.424,850.771 -733.408,850.443 -733.347,850.081C-733.298,849.829 -733.224,849.571 -733.129,849.313C-733.03,849.056 -732.9,848.812 -732.735,848.586C-732.492,848.258 -732.184,848.006 -731.817,847.829C-731.448,847.653 -731.074,847.562 -730.698,847.562C-730.477,847.562 -730.254,847.601 -730.029,847.67C-729.804,847.738 -729.618,847.846 -729.471,847.982C-729.312,848.141 -729.197,848.321 -729.124,848.515C-729.051,848.715 -729.009,848.927 -728.997,849.161C-728.99,849.335 -728.994,849.492 -729.007,849.636C-729.019,849.773 -729.04,849.933 -729.07,850.109L-729.087,850.238ZM-729.782,849.691C-729.751,849.501 -729.747,849.314 -729.768,849.125C-729.791,848.937 -729.842,848.767 -729.926,848.619C-730.007,848.47 -730.12,848.352 -730.263,848.253C-730.404,848.159 -730.587,848.113 -730.807,848.113C-731.025,848.113 -731.228,848.158 -731.413,848.248C-731.599,848.341 -731.763,848.46 -731.903,848.611C-732.042,848.757 -732.163,848.926 -732.259,849.115C-732.357,849.305 -732.43,849.494 -732.479,849.691L-729.782,849.691Z" style="fill:rgb(182,179,178);fill-rule:nonzero;"></path> <path d="M-726.703,848.66C-726.594,848.459 -726.487,848.293 -726.388,848.158C-726.287,848.026 -726.176,847.919 -726.054,847.845C-725.933,847.77 -725.793,847.715 -725.638,847.681C-725.484,847.647 -725.296,847.628 -725.076,847.628L-724.883,847.628L-725.003,848.312C-725.053,848.302 -725.104,848.293 -725.158,848.287C-725.212,848.28 -725.264,848.276 -725.315,848.276C-725.587,848.276 -725.82,848.331 -726.008,848.434C-726.197,848.538 -726.354,848.672 -726.484,848.837C-726.612,849.006 -726.713,849.199 -726.786,849.418C-726.858,849.638 -726.914,849.857 -726.95,850.08L-727.271,851.898L-726.364,851.898L-726.457,852.474L-728.861,852.474L-728.769,851.898L-728.01,851.898L-727.371,848.248L-728.128,848.248L-728.037,847.714L-726.537,847.714L-726.703,848.66Z" style="fill:rgb(182,179,178);fill-rule:nonzero;"></path> </g> </svg> 